<?xml version="1.0" standalone="no"?><!DOCTYPE svg PUBLIC "-//W3C//DTD SVG 1.1//EN" "http://www.w3.org/Graphics/SVG/1.1/DTD/svg11.dtd"><svg t="1680949394711" class="icon" viewBox="0 0 1024 1024" version="1.1" xmlns="http://www.w3.org/2000/svg" p-id="5214" width="16" height="16" xmlns:xlink="http://www.w3.org/1999/xlink"><path d="M487.253333 821.333333H370.773333c-114.688 0-168.106667-53.418667-168.106666-168.106666v-116.48c0-114.389333 53.418667-167.68 168.106666-167.68h116.48c114.688 0 168.106667 53.418667 168.106667 168.106666v116.48c-0.426667 114.389333-53.845333 167.68-168.106667 167.68z m-116.48-388.266666c-79.786667 0-104.106667 24.32-104.106666 104.106666v116.48c0 79.786667 24.32 104.106667 104.106666 104.106667h116.48c79.786667 0 104.106667-24.32 104.106667-104.106667v-116.48c0-79.786667-24.32-104.106667-104.106667-104.106666z" fill="#292D32" p-id="5215"></path><path d="M653.226667 654.933333h-30.293334a32.426667 32.426667 0 0 1-32-32v-86.186666c0-79.786667-24.32-104.106667-104.106666-104.106667H401.066667a32.426667 32.426667 0 0 1-32-32v-29.866667c0-114.688 53.418667-168.106667 168.106666-168.106666h116.48c114.688 0 168.106667 53.418667 168.106667 168.106666v116.48c-0.426667 114.389333-53.973333 167.68-168.533333 167.68z m-116.053334-388.266666c-79.36 0-103.68 23.936-104.106666 102.4h54.186666c114.688 0 168.106667 53.418667 168.106667 168.106666v54.186667c78.464-0.426667 102.4-24.746667 102.4-104.106667V370.773333c0-79.786667-24.32-104.106667-104.106667-104.106666zM612.437333 954.453333a32.597333 32.597333 0 0 1 0.426667-32.426666l44.8-74.666667a32.042667 32.042667 0 0 1 55.04 32.853333l-11.52 19.2a267.605333 267.605333 0 0 0 205.909333-259.84 32 32 0 0 1 64 0A331.946667 331.946667 0 0 1 640 970.666667a32.085333 32.085333 0 0 1-27.562667-16.213334zM53.333333 384A331.221333 331.221333 0 0 1 384 53.333333a32.085333 32.085333 0 0 1 27.733333 16.213334 32.597333 32.597333 0 0 1-0.426666 32.426666L366.506667 176.64a32 32 0 0 1-54.613334-33.28l11.52-19.2A267.136 267.136 0 0 0 117.333333 384a32.213333 32.213333 0 0 1-32 32 32.213333 32.213333 0 0 1-32-32z" fill="#292D32" p-id="5216"></path></svg>